<svg xmlns="http://www.w3.org/2000/svg" version="1.1" xmlns:xlink="http://www.w3.org/1999/xlink" xmlns:svgjs="http://svgjs.dev/svgjs" width="2000" height="1999" viewBox="0 0 2000 1999"><g transform="matrix(1,0,0,1,-0.431486880466764,-0.4312711370263287)"><svg viewBox="0 0 343 343" data-background-color="#02979d" preserveAspectRatio="xMidYMid meet" height="1999" width="2000" xmlns="http://www.w3.org/2000/svg" xmlns:xlink="http://www.w3.org/1999/xlink"><g id="tight-bounds" transform="matrix(1,0,0,1,0.0740000000000407,0.07400000000001228)"><svg viewBox="0 0 342.85155851775386 342.85155851775386" height="342.85155851775386" width="342.85155851775386"><g><svg></svg></g><g><svg viewBox="0 0 342.85155851775386 342.85155851775386" height="342.85155851775386" width="342.85155851775386"><g><path d="M0 171.426c0-94.676 76.75-171.426 171.426-171.426 94.676 0 171.426 76.75 171.426 171.426 0 94.676-76.75 171.426-171.426 171.426-94.676 0-171.426-76.75-171.426-171.426zM171.426 340.822c93.555 0 169.396-75.841 169.396-169.396 0-93.555-75.841-169.396-169.396-169.396-93.555 0-169.396 75.841-169.396 169.396 0 93.555 75.841 169.396 169.396 169.396z" data-fill-palette-color="tertiary" fill="#ffffff" stroke="transparent"></path><ellipse rx="164.56874808852186" ry="164.56874808852186" cx="171.42577925887693" cy="171.42577925887693" fill="#ffffff" stroke="transparent" stroke-width="0" fill-opacity="1" data-fill-palette-color="tertiary"></ellipse></g><g transform="matrix(1,0,0,1,64.84655864529837,148.09730247534608)"><svg viewBox="0 0 213.1584412271571 46.65695356706171" height="46.65695356706171" width="213.1584412271571"><g><svg viewBox="0 0 272.84833563116985 59.722111182203946" height="46.65695356706171" width="213.1584412271571"><g transform="matrix(1,0,0,1,0,15.45630132621921)"><svg viewBox="0 0 213.1584412271571 28.809508529765527" height="28.809508529765527" width="213.1584412271571"><g id="textblocktransform"><svg viewBox="0 0 213.1584412271571 28.809508529765527" height="28.809508529765527" width="213.1584412271571" id="textblock"><g><svg viewBox="0 0 213.1584412271571 28.809508529765527" height="28.809508529765527" width="213.1584412271571"><g transform="matrix(1,0,0,1,0,0)"><svg width="213.1584412271571" viewBox="2.450000047683716 -35.5 267.0799865722656 36.099998474121094" height="28.809508529765527" data-palette-color="#02979d"><path d="M2.45 0L2.45-2.7 6.1-2.7 6.1-32.2 2.45-32.2 2.45-34.9 12.85-34.9 22.05-15.35 22.2-15.35 31.45-34.9 41.65-34.9 41.65-32.2 38-32.2 38-2.7 41.65-2.7 41.65 0 28.45 0 28.45-2.7 32.1-2.7 32.1-29.4 31.85-29.4 29.35-23.5 20.7-5.65 12.1-23.5 9.6-29.4 9.35-29.4 9.35-2.7 13-2.7 13 0 2.45 0ZM46.55 0L46.55-2.7 50.2-2.7 50.2-32.2 46.55-32.2 46.55-34.9 73.25-34.9 73.25-26.1 68.7-26.1 68.7-31.95 56.15-31.95 56.15-19.55 64.65-19.55 64.65-23.1 67.95-23.1 67.95-13.05 64.65-13.05 64.65-16.6 56.15-16.6 56.15-2.95 69.2-2.95 69.2-9.45 73.75-9.45 73.75 0 46.55 0ZM79 0L79-2.7 82.65-2.7 82.65-32.2 79-32.2 79-34.9 94.35-34.9Q97.85-34.9 100.8-33.77 103.75-32.65 105.9-30.45 108.05-28.25 109.22-25 110.4-21.75 110.4-17.45L110.4-17.45Q110.4-13.15 109.22-9.9 108.05-6.65 105.9-4.45 103.75-2.25 100.8-1.13 97.85 0 94.35 0L94.35 0 79 0ZM88.6-31.95L88.6-2.95 93.5-2.95Q98.65-2.95 101.25-5.7 103.85-8.45 103.85-13.75L103.85-13.75 103.85-21.15Q103.85-26.45 101.25-29.2 98.65-31.95 93.5-31.95L93.5-31.95 88.6-31.95ZM115.39 0L115.39-2.7 119.04-2.7 119.04-32.2 115.39-32.2 115.39-34.9 128.64-34.9 128.64-32.2 124.99-32.2 124.99-2.7 128.64-2.7 128.64 0 115.39 0ZM148.59 0.6L148.59 0.6Q145.29 0.6 142.54-0.65 139.79-1.9 137.82-4.23 135.84-6.55 134.74-9.9 133.64-13.25 133.64-17.45L133.64-17.45Q133.64-21.8 134.79-25.18 135.94-28.55 137.99-30.85 140.04-33.15 142.92-34.33 145.79-35.5 149.19-35.5L149.19-35.5Q152.99-35.5 155.12-34.38 157.24-33.25 157.84-31.85L157.84-31.85 158.09-31.85 158.09-34.9 162.64-34.9 162.64-24.3 158.09-24.3 158.09-26.65Q158.09-29.35 156.07-30.85 154.04-32.35 150.19-32.35L150.19-32.35Q145.04-32.35 142.62-29.48 140.19-26.6 140.19-21.3L140.19-21.3 140.19-13.6Q140.19-8.5 142.64-5.65 145.09-2.8 149.29-2.8L149.29-2.8Q152.99-2.8 155.17-4.65 157.34-6.5 157.34-9.75L157.34-9.75 157.34-14.45 151.64-14.45 151.64-17.15 166.14-17.15 166.14-14.45 163.24-14.45 163.24 0 161.09 0 158.44-4.9 158.19-4.9Q157.84-4 157.07-3.03 156.29-2.05 155.07-1.25 153.84-0.45 152.22 0.08 150.59 0.6 148.59 0.6ZM170.74 0L170.74-2.7 174.39-2.7 174.39-32.2 170.74-32.2 170.74-34.9 197.44-34.9 197.44-26.1 192.89-26.1 192.89-31.95 180.34-31.95 180.34-19.55 188.84-19.55 188.84-23.1 192.14-23.1 192.14-13.05 188.84-13.05 188.84-16.6 180.34-16.6 180.34-2.95 193.39-2.95 193.39-9.45 197.94-9.45 197.94 0 170.74 0ZM201.49 0L201.49-2.7 204.09-2.7 215.19-34.9 220.89-34.9 231.99-2.7 234.59-2.7 234.59 0 221.54 0 221.54-2.7 225.84-2.7 223.04-11.05 210.39-11.05 207.59-2.7 211.89-2.7 211.89 0 201.49 0ZM216.59-30.2L211.19-13.9 222.24-13.9 216.84-30.2 216.59-30.2ZM237.78 0L237.78-2.7 241.43-2.7 241.43-32.2 237.78-32.2 237.78-34.9 255.53-34.9Q257.83-34.9 259.71-34.35 261.58-33.8 262.91-32.68 264.23-31.55 264.96-29.83 265.68-28.1 265.68-25.8L265.68-25.8Q265.68-22.2 263.61-19.88 261.53-17.55 257.98-16.85L257.98-16.85 264.08-6Q265.08-4.25 266.26-3.48 267.43-2.7 269.18-2.7L269.18-2.7 269.53-2.7 269.53 0 265.68 0Q264.08 0 262.96-0.28 261.83-0.55 260.98-1.13 260.13-1.7 259.48-2.58 258.83-3.45 258.23-4.65L258.23-4.65 252.38-15.8 247.38-15.8 247.38-2.7 251.03-2.7 251.03 0 237.78 0ZM247.38-31.95L247.38-18.6 254.03-18.6Q256.68-18.6 258.11-20.1 259.53-21.6 259.53-24.1L259.53-24.1 259.53-26.45Q259.53-28.95 258.11-30.45 256.68-31.95 254.03-31.95L254.03-31.95 247.38-31.95Z" opacity="1" transform="matrix(1,0,0,1,0,0)" fill="#000000" class="wordmark-text-0" data-fill-palette-color="quaternary" id="text-0"></path></svg></g></svg></g></svg></g></svg></g><g transform="matrix(1,0,0,1,219.95967476283005,0)"><svg viewBox="0 0 52.888660868339784 59.722111182203946" height="59.722111182203946" width="52.888660868339784"><g><svg xmlns="http://www.w3.org/2000/svg" xmlns:xlink="http://www.w3.org/1999/xlink" xml:space="preserve" version="1.1" style="shape-rendering:geometricPrecision;text-rendering:geometricPrecision;image-rendering:optimizeQuality;" viewBox="59.08498001098633 8.999970436096191 161.83001708984375 262.0000305175781" x="8" y="0" fill-rule="evenodd" clip-rule="evenodd" height="59.722111182203946" width="36.888660868339784" class="icon-icon-0" data-fill-palette-color="quaternary" id="icon-0"><g fill="#02979d" data-fill-palette-color="quaternary"><path class="" d="M84.802 179.606l20.989 0 0-45.497c0-2.883-1.182-5.506-3.085-7.409-1.888-1.889-4.486-3.067-7.343-3.085l-0.066 0.001-0.066-0.001c-2.857 0.018-5.455 1.196-7.344 3.085-1.903 1.903-3.085 4.526-3.085 7.409l0 45.497z m125.896 0l0-45.497c0-2.883-1.181-5.506-3.085-7.409-1.888-1.889-4.487-3.067-7.343-3.085l-0.066 0.001-0.066-0.001c-2.857 0.018-5.455 1.196-7.344 3.085-1.903 1.903-3.085 4.526-3.085 7.409l0 45.497 20.989 0z m-26.988 0.659l0-46.156c0-4.539 1.854-8.663 4.842-11.651 2.314-2.314 5.31-3.948 8.652-4.568l0-51.229c0-1.353 0.896-2.497 2.127-2.871 6.402-2.707 10.704-7.835 12.785-13.708 1.41-3.979 1.807-8.286 1.156-12.413-0.645-4.083-2.324-7.996-5.071-11.234-3.946-4.65-10.158-7.924-18.764-8.345-1.65-0.078-2.925-1.479-2.847-3.129 0.077-1.65 1.478-2.925 3.129-2.848 10.447 0.511 18.097 4.615 23.052 10.455 3.472 4.093 5.593 9.033 6.407 14.187 0.806 5.109 0.32 10.425-1.413 15.319-2.438 6.879-7.332 12.953-14.561 16.509l0 49.307c3.342 0.62 6.338 2.254 8.652 4.568 2.987 2.988 4.842 7.112 4.842 11.651l0 46.151c0.786 0.361 1.496 0.859 2.1 1.463 1.306 1.306 2.117 3.111 2.117 5.099l0 71.689c0 3.437-1.404 6.561-3.666 8.823-2.262 2.261-5.385 3.666-8.822 3.666l-16.445 0c-3.438 0-6.561-1.405-8.823-3.666-2.262-2.262-3.666-5.385-3.666-8.823l0-71.689c0-1.988 0.811-3.793 2.117-5.099 0.069-0.069 0.141-0.134 0.215-0.195 0.555-0.514 1.191-0.942 1.885-1.263z m29.989 5.34l-0.001 0-26.988 0 0 0-0.014 0c-0.29 0.004-0.556 0.108-0.765 0.279l-0.078 0.081c-0.222 0.222-0.36 0.526-0.36 0.857l0 71.689c0 1.781 0.731 3.403 1.908 4.58 1.178 1.178 2.8 1.909 4.581 1.909l16.445 0c1.781 0 3.402-0.731 4.58-1.909 1.177-1.177 1.908-2.799 1.908-4.58l0-71.689c0-0.331-0.138-0.635-0.36-0.857-0.222-0.221-0.525-0.36-0.856-0.36z m-101.908-5.34c0.78 0.361 1.487 0.857 2.088 1.458l0.006 0.006 0.006-0.006c1.306 1.306 2.117 3.111 2.117 5.099l0 71.689c0 3.438-1.404 6.561-3.666 8.823-2.261 2.261-5.385 3.666-8.822 3.666l-16.445 0c-3.438 0-6.561-1.405-8.823-3.666-2.262-2.262-3.666-5.386-3.666-8.823l0-71.689c0-1.988 0.811-3.793 2.118-5.099 0.603-0.603 1.313-1.101 2.099-1.462l0-46.152c0-4.539 1.854-8.663 4.842-11.651 2.314-2.314 5.31-3.948 8.652-4.568l0-36.59c-18.595-1.525-33.212-17.099-33.212-36.088 0-9.999 4.053-19.052 10.606-25.606 6.554-6.553 15.607-10.606 25.606-10.606 19.999 0 36.212 16.213 36.212 36.212 0 10-4.053 19.053-10.606 25.606-5.891 5.891-13.803 9.761-22.606 10.483l0 36.589c3.342 0.62 6.338 2.254 8.652 4.568 2.987 2.988 4.842 7.112 4.842 11.651l0 46.156z m-16.494-158.095c6.363 0 12.123 2.58 16.293 6.749 4.17 4.17 6.749 9.931 6.749 16.293 0 6.363-2.579 12.124-6.749 16.293-4.17 4.17-9.931 6.75-16.293 6.75-6.362 0-12.123-2.58-16.293-6.75-4.17-4.169-6.749-9.93-6.749-16.293 0-6.362 2.579-12.123 6.749-16.293 4.17-4.169 9.931-6.749 16.293-6.749z m14.172 8.87c-3.626-3.626-8.637-5.869-14.172-5.869-5.535 0-10.545 2.243-14.172 5.869-3.626 3.627-5.87 8.638-5.87 14.172 0 5.535 2.244 10.546 5.87 14.172 3.627 3.627 8.637 5.87 14.172 5.87 5.535 0 10.546-2.243 14.172-5.87 3.627-3.626 5.87-8.637 5.87-14.172 0-5.534-2.243-10.545-5.87-14.172z m16.04 14.172c0-16.685-13.526-30.212-30.212-30.212-8.343 0-15.896 3.382-21.363 8.849-5.467 5.467-8.849 13.02-8.849 21.363 0 16.686 13.527 30.213 30.212 30.213 8.343 0 15.896-3.382 21.363-8.849 5.468-5.467 8.849-13.021 8.849-21.364z m-16.718 140.393l0 0-26.988 0-0.001 0-0.015 0c-0.325 0.005-0.623 0.142-0.841 0.36-0.222 0.222-0.36 0.526-0.36 0.857l0 71.689c0 1.781 0.731 3.403 1.908 4.58 1.178 1.178 2.8 1.909 4.581 1.909l16.445 0c1.781 0 3.403-0.731 4.58-1.909 1.178-1.177 1.909-2.799 1.909-4.58l0-71.689c0-0.331-0.138-0.635-0.36-0.857l0.006-0.005c-0.222-0.219-0.528-0.355-0.864-0.355z" fill="#000000" fill-rule="nonzero" data-fill-palette-color="quaternary"></path></g></svg></g></svg></g></svg></g></svg></g></svg></g><defs></defs></svg><rect width="342.85155851775386" height="342.85155851775386" fill="none" stroke="none" visibility="hidden"></rect></g></svg></g></svg>